<svg xmlns="http://www.w3.org/2000/svg" viewBox="0 0 400 400" width="400" height="400">
  <rect width="400" height="400" fill="#fdfdfd"/>

  <!-- Top-left grass tuft at ~(90, 135) -->
  <g transform="translate(90, 135)">
    <path d="M-22,0 Q-24,-15 -28,-30 Q-26,-15 -22,0Z" fill="#2d5a3a" stroke="#2d5a3a" stroke-width="0.5"/>
    <path d="M-12,0 Q-16,-20 -22,-42 Q-14,-20 -12,0Z" fill="#3a7a4a" stroke="#3a7a4a" stroke-width="0.5"/>
    <path d="M-2,0 Q-4,-22 -5,-48 Q0,-22 -2,0Z" fill="#2d5a3a" stroke="#2d5a3a" stroke-width="0.5"/>
    <path d="M6,0 Q8,-20 14,-42 Q10,-20 6,0Z" fill="#3a7a4a" stroke="#3a7a4a" stroke-width="0.5"/>
    <path d="M14,0 Q18,-14 24,-30 Q20,-14 14,0Z" fill="#2d5a3a" stroke="#2d5a3a" stroke-width="0.5"/>
  </g>

  <!-- Middle-right grass tuft at ~(290, 225) -->
  <g transform="translate(290, 225)">
    <path d="M-22,0 Q-24,-15 -28,-30 Q-26,-15 -22,0Z" fill="#2d5a3a" stroke="#2d5a3a" stroke-width="0.5"/>
    <path d="M-12,0 Q-16,-20 -22,-42 Q-14,-20 -12,0Z" fill="#3a7a4a" stroke="#3a7a4a" stroke-width="0.5"/>
    <path d="M-2,0 Q-4,-22 -5,-48 Q0,-22 -2,0Z" fill="#2d5a3a" stroke="#2d5a3a" stroke-width="0.5"/>
    <path d="M6,0 Q8,-20 14,-42 Q10,-20 6,0Z" fill="#3a7a4a" stroke="#3a7a4a" stroke-width="0.5"/>
    <path d="M14,0 Q18,-14 24,-30 Q20,-14 14,0Z" fill="#2d5a3a" stroke="#2d5a3a" stroke-width="0.5"/>
  </g>

  <!-- Bottom-left grass tuft at ~(110, 325) -->
  <g transform="translate(110, 325)">
    <path d="M-22,0 Q-24,-15 -28,-30 Q-26,-15 -22,0Z" fill="#2d5a3a" stroke="#2d5a3a" stroke-width="0.5"/>
    <path d="M-12,0 Q-16,-20 -22,-42 Q-14,-20 -12,0Z" fill="#3a7a4a" stroke="#3a7a4a" stroke-width="0.5"/>
    <path d="M-2,0 Q-4,-22 -5,-48 Q0,-22 -2,0Z" fill="#2d5a3a" stroke="#2d5a3a" stroke-width="0.5"/>
    <path d="M6,0 Q8,-20 14,-42 Q10,-20 6,0Z" fill="#3a7a4a" stroke="#3a7a4a" stroke-width="0.5"/>
    <path d="M14,0 Q18,-14 24,-30 Q20,-14 14,0Z" fill="#2d5a3a" stroke="#2d5a3a" stroke-width="0.5"/>
  </g>
</svg>